<svg width="200" height="75" viewBox="0 0 200 75" fill="none" xmlns="http://www.w3.org/2000/svg">
<path d="M2.5 15C2.5 8.09644 8.09644 2.5 15 2.5H185C191.904 2.5 197.5 8.09644 197.5 15V60C197.5 66.9036 191.904 72.5 185 72.5H15C8.09644 72.5 2.5 66.9036 2.5 60V15Z" stroke="#16213E" stroke-width="5"/>
<path d="M33.354 34.91C33.354 36.0713 33.0853 37.1287 32.548 38.082C32.0107 39.018 31.2133 39.7633 30.156 40.318C29.116 40.8727 27.8507 41.15 26.36 41.15H24.072V47H18.3V28.592H26.36C28.6133 28.592 30.338 29.164 31.534 30.308C32.7473 31.452 33.354 32.986 33.354 34.91ZM25.71 36.6C26.906 36.6 27.504 36.0367 27.504 34.91C27.504 33.7833 26.906 33.22 25.71 33.22H24.072V36.6H25.71ZM40.9568 28.592V47H35.1848V28.592H40.9568ZM43.0437 37.77C43.0437 35.95 43.4077 34.3293 44.1357 32.908C44.881 31.4867 45.9383 30.386 47.3077 29.606C48.677 28.8087 50.289 28.41 52.1437 28.41C53.7383 28.41 55.1597 28.7133 56.4077 29.32C57.673 29.9093 58.6957 30.75 59.4757 31.842C60.273 32.934 60.8017 34.208 61.0617 35.664H54.9777C54.7003 35.0573 54.3017 34.5893 53.7817 34.26C53.279 33.9133 52.6983 33.74 52.0397 33.74C51.069 33.74 50.2977 34.104 49.7257 34.832C49.171 35.56 48.8937 36.5393 48.8937 37.77C48.8937 39.0007 49.171 39.98 49.7257 40.708C50.2977 41.436 51.069 41.8 52.0397 41.8C52.6983 41.8 53.279 41.6353 53.7817 41.306C54.3017 40.9593 54.7003 40.4827 54.9777 39.876H61.0617C60.8017 41.332 60.273 42.606 59.4757 43.698C58.6957 44.79 57.673 45.6393 56.4077 46.246C55.1597 46.8353 53.7383 47.13 52.1437 47.13C50.289 47.13 48.677 46.74 47.3077 45.96C45.9383 45.1627 44.881 44.0533 44.1357 42.632C43.4077 41.2107 43.0437 39.59 43.0437 37.77ZM74.2678 47L68.9118 39.018V47H63.1398V28.592H68.9118V36.34L74.1898 28.592H80.7158L74.3718 37.406L81.1318 47H74.2678ZM94.5708 44.218H88.4348L87.5248 47H81.4668L88.2008 28.592H94.8568L101.565 47H95.4808L94.5708 44.218ZM93.1668 39.876L91.5028 34.754L89.8388 39.876H93.1668ZM110.078 47.182C107.877 47.182 106.057 46.6707 104.618 45.648C103.197 44.608 102.426 43.0913 102.304 41.098H108.44C108.527 42.1553 108.995 42.684 109.844 42.684C110.156 42.684 110.416 42.6147 110.624 42.476C110.85 42.32 110.962 42.086 110.962 41.774C110.962 41.3407 110.728 40.994 110.26 40.734C109.792 40.4567 109.064 40.1447 108.076 39.798C106.898 39.382 105.918 38.9747 105.138 38.576C104.376 38.1773 103.717 37.5967 103.162 36.834C102.608 36.0713 102.339 35.092 102.356 33.896C102.356 32.7 102.66 31.686 103.266 30.854C103.89 30.0047 104.731 29.3633 105.788 28.93C106.863 28.4967 108.068 28.28 109.402 28.28C111.656 28.28 113.441 28.8 114.758 29.84C116.093 30.88 116.795 32.3447 116.864 34.234H110.65C110.633 33.714 110.503 33.3413 110.26 33.116C110.018 32.8907 109.723 32.778 109.376 32.778C109.134 32.778 108.934 32.8647 108.778 33.038C108.622 33.194 108.544 33.4193 108.544 33.714C108.544 34.13 108.77 34.4767 109.22 34.754C109.688 35.014 110.425 35.3347 111.43 35.716C112.592 36.1493 113.545 36.5653 114.29 36.964C115.053 37.3627 115.712 37.9173 116.266 38.628C116.821 39.3387 117.098 40.2313 117.098 41.306C117.098 42.4327 116.821 43.4467 116.266 44.348C115.712 45.232 114.906 45.9253 113.848 46.428C112.791 46.9307 111.534 47.182 110.078 47.182ZM133.582 28.592V33.168H128.694V47H122.922V33.168H118.086V28.592H133.582ZM140.79 28.592V38.966C140.79 39.8153 140.972 40.4913 141.336 40.994C141.717 41.4793 142.324 41.722 143.156 41.722C143.988 41.722 144.603 41.4793 145.002 40.994C145.4 40.4913 145.6 39.8153 145.6 38.966V28.592H151.346V38.966C151.346 40.7167 150.982 42.216 150.254 43.464C149.526 44.6947 148.529 45.622 147.264 46.246C145.998 46.87 144.586 47.182 143.026 47.182C141.466 47.182 140.079 46.87 138.866 46.246C137.67 45.622 136.734 44.6947 136.058 43.464C135.382 42.2333 135.044 40.734 135.044 38.966V28.592H140.79ZM161.505 28.592C163.429 28.592 165.11 28.982 166.549 29.762C168.005 30.542 169.123 31.6253 169.903 33.012C170.683 34.3987 171.073 35.976 171.073 37.744C171.073 39.4947 170.683 41.072 169.903 42.476C169.123 43.88 168.005 44.9893 166.549 45.804C165.11 46.6013 163.429 47 161.505 47H153.835V28.592H161.505ZM160.985 41.852C162.285 41.852 163.316 41.4967 164.079 40.786C164.842 40.0753 165.223 39.0613 165.223 37.744C165.223 36.4267 164.842 35.4127 164.079 34.702C163.316 33.9913 162.285 33.636 160.985 33.636H159.607V41.852H160.985Z" fill="#16213E"/>
<path d="M183.44 18.312L185.584 22.184L182.032 23.336L185.584 24.424L183.248 28.488L180.464 25.736L181.36 29.48H176.912L177.808 25.736L175.088 28.52L172.688 24.392L176.24 23.24L172.752 22.216L174.896 18.344L177.84 21L176.848 17.192H181.392L180.464 21L183.44 18.312Z" fill="#E94560"/>
</svg>
